<svg width="311" height="258" viewBox="0 0 311 258" fill="none" xmlns="http://www.w3.org/2000/svg">
<rect width="311" height="258" fill="white"/>
<ellipse cx="156" cy="115.5" rx="95" ry="98.5" fill="#C4C4C4"/>
<rect x="72" y="44" width="165" height="56" fill="#C4C4C4"/>
<path d="M186 130L105.46 43H266.54L186 130Z" fill="#C4C4C4"/>
<path d="M126 130L45.4596 43H206.54L126 130Z" fill="#C4C4C4"/>
<rect width="311" height="44" fill="white"/>
<rect x="64.8707" y="117.414" width="27" height="28" transform="rotate(-29.3512 64.8707 117.414)" fill="#78BE6D" fill-opacity="0.7"/>
<rect x="61" y="114.498" width="27" height="28" transform="rotate(-35.03 61 114.498)" fill="#78BE6D"/>
<rect x="71.8707" y="158.414" width="27" height="28" transform="rotate(-29.3512 71.8707 158.414)" fill="#BEA76D" fill-opacity="0.7"/>
<rect x="68" y="155.498" width="27" height="28" transform="rotate(-35.03 68 155.498)" fill="#BE946D"/>
<rect x="112.871" y="168.414" width="27" height="28" transform="rotate(-29.3512 112.871 168.414)" fill="#BE776D" fill-opacity="0.7"/>
<rect x="109" y="165.498" width="27" height="28" transform="rotate(-35.03 109 165.498)" fill="#BE776D"/>
<rect x="121.871" y="133.414" width="27" height="28" transform="rotate(-29.3512 121.871 133.414)" fill="#826DBE" fill-opacity="0.7"/>
<rect x="118" y="130.498" width="27" height="28" transform="rotate(-35.03 118 130.498)" fill="#876DBE"/>
<rect x="89.8707" y="144.414" width="27" height="28" transform="rotate(-29.3512 89.8707 144.414)" fill="#BE6D8A" fill-opacity="0.7"/>
<rect x="86" y="141.498" width="27" height="28" transform="rotate(-35.03 86 141.498)" fill="#BE6DB1"/>
<rect x="181.871" y="175.414" width="27" height="28" transform="rotate(-29.3512 181.871 175.414)" fill="#6DA6BE" fill-opacity="0.7"/>
<rect x="178" y="172.498" width="27" height="28" transform="rotate(-35.03 178 172.498)" fill="#6DBEB4"/>
<rect x="101.387" y="192.449" width="27" height="28" transform="rotate(-67.3512 101.387 192.449)" fill="#78BE6D" fill-opacity="0.7"/>
<rect x="96.5416" y="192.534" width="27" height="28" transform="rotate(-73.03 96.5416 192.534)" fill="#78BE6D"/>
<rect x="131.387" y="203.449" width="27" height="28" transform="rotate(-67.3512 131.387 203.449)" fill="#BEB66D" fill-opacity="0.7"/>
<rect x="126.542" y="203.534" width="27" height="28" transform="rotate(-73.03 126.542 203.534)" fill="#B8BE6D"/>
<rect x="150.387" y="197.449" width="27" height="28" transform="rotate(-67.3512 150.387 197.449)" fill="#BEA76D" fill-opacity="0.7"/>
<rect x="145.542" y="197.534" width="27" height="28" transform="rotate(-73.03 145.542 197.534)" fill="#BE946D"/>
<rect x="201.387" y="165.449" width="27" height="28" transform="rotate(-67.3512 201.387 165.449)" fill="#BE776D" fill-opacity="0.7"/>
<rect x="196.542" y="165.534" width="27" height="28" transform="rotate(-73.03 196.542 165.534)" fill="#BE776D"/>
<rect x="146.387" y="168.449" width="27" height="28" transform="rotate(-67.3512 146.387 168.449)" fill="#6D89BE" fill-opacity="0.7"/>
<rect x="141.542" y="168.534" width="27" height="28" transform="rotate(-73.03 141.542 168.534)" fill="#6D7FBE"/>
<rect x="81.6713" y="104.224" width="27" height="28" transform="rotate(-100.351 81.6713 104.224)" fill="#BEB66D" fill-opacity="0.7"/>
<rect x="77.6538" y="106.934" width="27" height="28" transform="rotate(-106.03 77.6538 106.934)" fill="#B8BE6D"/>
<rect x="175.671" y="154.224" width="27" height="28" transform="rotate(-100.351 175.671 154.224)" fill="#BE776D" fill-opacity="0.7"/>
<rect x="171.654" y="156.934" width="27" height="28" transform="rotate(-106.03 171.654 156.934)" fill="#BE776D"/>
<rect x="211.671" y="92.2238" width="27" height="28" transform="rotate(-100.351 211.671 92.2238)" fill="#826DBE" fill-opacity="0.7"/>
<rect x="207.654" y="94.9342" width="27" height="28" transform="rotate(-106.03 207.654 94.9342)" fill="#876DBE"/>
<rect x="167.884" y="127.187" width="27" height="28" transform="rotate(-145.351 167.884 127.187)" fill="#BEA76D" fill-opacity="0.7"/>
<rect x="166.96" y="131.944" width="27" height="28" transform="rotate(-151.03 166.96 131.944)" fill="#BE946D"/>
<rect x="207.884" y="128.187" width="27" height="28" transform="rotate(-145.351 207.884 128.187)" fill="#BE776D" fill-opacity="0.7"/>
<rect x="206.96" y="132.944" width="27" height="28" transform="rotate(-151.03 206.96 132.944)" fill="#BE776D"/>
<rect x="145.884" y="105.187" width="27" height="28" transform="rotate(-145.351 145.884 105.187)" fill="#BE6D8A" fill-opacity="0.7"/>
<rect x="144.96" y="109.944" width="27" height="28" transform="rotate(-151.03 144.96 109.944)" fill="#BE6DB1"/>
<rect x="244.574" y="131.052" width="27" height="28" transform="rotate(151.649 244.574 131.052)" fill="#6D89BE" fill-opacity="0.7"/>
<rect x="248.393" y="134.036" width="27" height="28" transform="rotate(145.97 248.393 134.036)" fill="#6D7FBE"/>
<rect x="116.47" y="95.1915" width="27" height="28" transform="rotate(59.6488 116.47 95.1915)" fill="#6DA6BE" fill-opacity="0.7"/>
<rect x="119.318" y="91.2705" width="27" height="28" transform="rotate(53.97 119.318 91.2705)" fill="#6DBEB4"/>
</svg>
